<svg aria-hidden="true" style="width:0;height:0;position:absolute;overflow:hidden" xmlns="http://www.w3.org/2000/svg"><defs><symbol id="house" viewBox="0 0 32 32"><path d="M32 16v-2.667L16 0 0 13.333V16c2.667 0 2.667 2.667 2.667 0h2.667v16h5.333c2.667 0 2.667 0 2.667-2.667v-8h5.333v8C18.667 32 21.334 32 21.334 32h5.333c2.667 0 2.667 0 2.667-2.667V16h2.667z"/></symbol><symbol id="quotes-2" viewBox="0 0 43 32"><path d="M32 0c1.6 0 4 .8 5.6 1.6s3.2 2.4 4 4.8c.8 1.6 1.6 4 1.6 6.4s-.8 5.6-1.6 8c-.8.8-1.6 1.6-2.4 3.2-1.6 1.6-2.4 3.2-3.2 4l-4 4-3.2-4.8c1.6-1.6 4-3.2 5.6-4.8s1.6-3.2 1.6-4.8V16c-1.6.8-3.2 1.6-4.8 1.6s-3.2-.8-4-1.6c-1.6-.8-2.4-1.6-3.2-3.2-.8-.8-.8-2.4-.8-4s0-2.4.8-4 2.4-2.4 4-3.2C28.8.8 30.4 0 32 0zM8.8 0c1.6 0 4 .8 5.6 1.6s3.2 2.4 4 4.8c.8 1.6 1.6 4 1.6 6.4s0 4-.8 4.8c0 1.6-.8 3.2-2.4 4.8-.8 1.6-2.4 3.2-3.2 4-.8 1.6-2.4 3.2-4.8 5.6l-3.2-4.8c2.4-1.6 4-3.2 5.6-4.8s2.4-3.2 2.4-4.8c0-.8-.8-1.6-.8-1.6-1.6.8-3.2 1.6-4.8 1.6s-2.4-.8-4-1.6c-.8-.8-2.4-1.6-3.2-3.2-.8-.8-.8-2.4-.8-4s0-2.4 1.6-4c.8-1.6 1.6-2.4 3.2-3.2C5.6.8 7.2 0 8.8 0z"/></symbol><symbol id="three-dots-2" viewBox="0 0 256 32"><path d="M144 16c0 8.837-7.163 16-16 16s-16-7.163-16-16 7.163-16 16-16 16 7.163 16 16zM32 16c0 8.837-7.163 16-16 16S0 24.837 0 16 7.163 0 16 0s16 7.163 16 16zm224 0c0 8.837-7.163 16-16 16s-16-7.163-16-16 7.163-16 16-16 16 7.163 16 16z"/></symbol></defs></svg>