<svg aria-hidden="true" style="width:0;height:0;position:absolute;overflow:hidden" xmlns="http://www.w3.org/2000/svg"><defs><symbol id="house" viewBox="0 0 35 32"><path d="M34.472 15.381c.633-.649.572-1.644-.136-2.222L18.735.425c-.708-.578-1.843-.566-2.537.027L.544 13.838c-.693.593-.727 1.587-.075 2.219l.392.381c.651.632 1.704.707 2.349.168l1.17-.977v14.308c0 .878.763 1.588 1.703 1.588h6.102c.94 0 1.703-.711 1.703-1.588v-10.01h7.783v10.01c-.014.877.659 1.588 1.6 1.588h6.467c.94 0 1.703-.711 1.703-1.588V15.831l.722.591c.399.327 1.234.065 1.866-.585l.444-.455z"/></symbol><symbol id="quotes" viewBox="0 0 54 40"><path d="M40 0c2 0 5 1 7 2s4 3 5 6c1 2 2 5 2 8s-1 7-2 10c-1 1-2 2-3 4-2 2-3 4-4 5l-5 5-4-6c2-2 5-4 7-6s2-4 2-6v-2c-2 1-4 2-6 2s-4-1-5-2c-2-1-3-2-4-4-1-1-1-3-1-5s0-3 1-5 3-3 5-4c1-1 3-2 5-2zM11 0c2 0 5 1 7 2s4 3 5 6c1 2 2 5 2 8s0 5-1 6c0 2-1 4-3 6-1 2-3 4-4 5-1 2-3 4-6 7l-4-6c3-2 5-4 7-6s3-4 3-6c0-1-1-2-1-2-2 1-4 2-6 2s-3-1-5-2c-1-1-3-2-4-4-1-1-1-3-1-5s0-3 2-5c1-2 2-3 4-4 1-1 3-2 5-2z"/></symbol><symbol id="quotes-2" viewBox="0 0 43 32"><path d="M32 0c1.6 0 4 .8 5.6 1.6s3.2 2.4 4 4.8c.8 1.6 1.6 4 1.6 6.4s-.8 5.6-1.6 8c-.8.8-1.6 1.6-2.4 3.2-1.6 1.6-2.4 3.2-3.2 4l-4 4-3.2-4.8c1.6-1.6 4-3.2 5.6-4.8s1.6-3.2 1.6-4.8V16c-1.6.8-3.2 1.6-4.8 1.6s-3.2-.8-4-1.6c-1.6-.8-2.4-1.6-3.2-3.2-.8-.8-.8-2.4-.8-4s0-2.4.8-4 2.4-2.4 4-3.2C28.8.8 30.4 0 32 0zM8.8 0c1.6 0 4 .8 5.6 1.6s3.2 2.4 4 4.8c.8 1.6 1.6 4 1.6 6.4s0 4-.8 4.8c0 1.6-.8 3.2-2.4 4.8-.8 1.6-2.4 3.2-3.2 4-.8 1.6-2.4 3.2-4.8 5.6l-3.2-4.8c2.4-1.6 4-3.2 5.6-4.8s2.4-3.2 2.4-4.8c0-.8-.8-1.6-.8-1.6-1.6.8-3.2 1.6-4.8 1.6s-2.4-.8-4-1.6c-.8-.8-2.4-1.6-3.2-3.2-.8-.8-.8-2.4-.8-4s0-2.4 1.6-4c.8-1.6 1.6-2.4 3.2-3.2C5.6.8 7.2 0 8.8 0z"/></symbol><symbol id="three-dots-2" viewBox="0 0 256 32"><path d="M144 16c0 8.837-7.163 16-16 16s-16-7.163-16-16 7.163-16 16-16 16 7.163 16 16zM32 16c0 8.837-7.163 16-16 16S0 24.837 0 16 7.163 0 16 0s16 7.163 16 16zm224 0c0 8.837-7.163 16-16 16s-16-7.163-16-16 7.163-16 16-16 16 7.163 16 16z"/></symbol></defs></svg>