<svg aria-hidden="true" style="width:0;height:0;position:absolute;overflow:hidden" xmlns="http://www.w3.org/2000/svg"><defs><symbol id="facebook" viewBox="0 0 16 32"><path d="M14.266 15.97H10.09v15.39H3.762V15.968H.754V10.56h3.008V7.062C3.762 4.558 4.946.64 10.146.64l4.688.019v5.25h-3.402c-.557 0-1.342.282-1.342 1.475v3.184h4.73l-.554 5.4z"/></symbol><symbol id="github" viewBox="0 0 32 32"><path d="M16 .941C7.728.941.941 7.728.941 16c0 7.058 4.954 13.469 11.53 15.059v-4.982c-.651.142-1.251.147-1.915-.048-.89-.264-1.613-.856-2.149-1.76-.342-.578-.949-1.203-1.581-1.157l-.155-1.76c1.368-.115 2.55.835 3.253 2.016.312.523.672.832 1.133.968.445.131.923.067 1.482-.128.139-1.117.651-1.536 1.037-2.123-3.922-.586-5.485-2.667-6.106-4.309-.822-2.181-.381-4.906 1.072-6.627.029-.034.08-.122.061-.182-.667-2.014.144-3.68.176-3.856.768.227.893-.229 3.341 1.258l.422.254c.176.106.122.045.299.032a12.42 12.42 0 0 1 3.15-.446h.01c1.147.018 2.247.183 3.294.478l-.09-.022.138.013c-.013 0 .037-.008.12-.058 3.056-1.851 2.947-1.246 3.766-1.512.03.176.832 1.869.171 3.856-.088.275 2.651 2.784 1.133 6.81-.621 1.643-2.184 3.725-6.106 4.31.502.766 1.107 1.174 1.104 2.755v6.219c6.576-1.59 11.53-8 11.53-15.059 0-8.27-6.787-15.058-15.059-15.058z"/></symbol><symbol id="telegram" viewBox="0 0 40 32"><path d="m16.206 20.75-.636 8.34c.908 0 1.302-.366 1.774-.802l4.26-3.8 8.83 6.034c1.62.84 2.76.398 3.196-1.39l5.796-25.346h.002c.514-2.236-.866-3.108-2.444-2.56L2.92 13.398c-2.324.84-2.29 2.052-.396 2.6l8.71 2.528L31.46 6.712c.952-.588 1.82-.264 1.106.326L16.204 20.75z"/></symbol></defs></svg>