<svg aria-hidden="true" style="width:0;height:0;position:absolute;overflow:hidden" xmlns="http://www.w3.org/2000/svg"><defs><symbol id="icon-close-mobile" viewBox="0 0 32 32"><path d="M31.439 3.166 28.273 0 15.72 12.553 3.167 0 .001 3.166l12.553 12.553L.001 28.272l3.166 3.166L15.72 18.885l12.553 12.553 3.166-3.166-12.553-12.553L31.439 3.166z"/></symbol><symbol id="icon-circle-up" viewBox="0 0 32 32"><path d="M0 16c0 8.837 7.163 16 16 16s16-7.163 16-16S24.837 0 16 0 0 7.163 0 16zm29 0c0 7.18-5.82 13-13 13S3 23.18 3 16 8.82 3 16 3s13 5.82 13 13z"/><path d="m22.086 20.914 2.829-2.829-8.914-8.914-8.914 8.914 2.828 2.828 6.086-6.086z"/></symbol><symbol id="icon-emblem_uaf" viewBox="0 0 32 32"><path fill="#ffed00" style="fill:var(--color1,#ffed00)" d="M10.388 19.07h2.541v2.541l-2.541 10.376h11.223L19.07 21.611V19.07h2.541l10.376 2.541V10.388l-10.376 2.541H19.07v-2.541L21.611.012H10.388l2.541 10.376v2.541h-2.541L.012 10.388v11.223z"/><path fill="#e5097f" style="fill:var(--color2,#e5097f)" d="M21.442 13.413h-2.855v-2.855L21.048.496H10.954l2.46 10.062v2.855h-2.855L.497 10.953v10.094l10.062-2.46h2.855v2.855l-2.46 10.062h10.094l-2.461-10.062v-2.855h2.855l10.062 2.46V10.953z"/><path fill="#ffed00" style="fill:var(--color1,#ffed00)" d="M16 9.499a6.502 6.502 0 1 0 .001 13.003A6.502 6.502 0 0 0 16 9.499z"/><path style="fill:var(--color3,#000)" d="M16 9.983a6.018 6.018 0 1 0 .002 12.036A6.018 6.018 0 0 0 16 9.983z"/><path fill="#ffed00" style="fill:var(--color1,#ffed00)" d="M14.639 19.062h-1.703v-7.405a3.232 3.232 0 0 1 1.65 2.436l.242 2.179c-.038-.011-.068-.011-.106-.011a.512.512 0 0 0-.517.502c0 .287.23.517.517.517a.427.427 0 0 0 .189-.042 5.29 5.29 0 0 0 .789-2.775l-.079-2.545c0-.381.136-.736.378-1.023.245.287.381.642.381 1.023l-.079 2.545c0 .978.272 1.945.774 2.775a.572.572 0 0 0 .204.042c.272 0 .506-.23.506-.517a.512.512 0 0 0-.506-.502c-.038 0-.079 0-.121.011l.257-2.179a3.21 3.21 0 0 1 1.65-2.436v7.405h-1.718a2.82 2.82 0 0 1-1.02 1.703.574.574 0 0 0-.121.094.946.946 0 0 0-.208.245.861.861 0 0 0-.204-.245c-.038-.026-.094-.068-.136-.094a2.85 2.85 0 0 1-1.02-1.703zm-.914-2.545c.083-.298.276-.544.548-.668l-.193-1.688a2.716 2.716 0 0 0-.638-1.442v3.799h.283zm-.283.503v1.541h1.155c0-.272.026-.532.109-.778a1.02 1.02 0 0 1-.982-.763h-.283zm2.299 1.54c0-.329-.23-.6-.544-.642a2.033 2.033 0 0 0-.094.642h.638zm-.559.502c.068.408.272.778.559 1.076v-1.076h-.559zm1.62 0h-.544v1.076c.287-.298.476-.668.544-1.076zm.084-.502a2.4 2.4 0 0 0-.083-.642.636.636 0 0 0-.544.642h.627zm-1.484-1.144.57.408.615-.393a5.874 5.874 0 0 1-.589-1.416c-.136.502-.31.91-.597 1.401zm2.001 1.144h1.144v-1.541h-.287a.99.99 0 0 1-.967.763c.068.261.11.517.11.778zm1.144-1.54zm-.287-.506h.287v-3.799c-.34.408-.559.899-.627 1.435l-.204 1.699a1 1 0 0 1 .544.665z"/></symbol></defs></svg>