<svg xmlns="http://www.w3.org/2000/svg" width="54" height="40"><path fill="#E1E1E1" style="fill:var(--color1,#e1e1e1)" d="M40 0c2 0 5 1 7 2s4 3 5 6c1 2 2 5 2 8s-1 7-2 10c-1 1-2 2-3 4-2 2-3 4-4 5l-5 5-4-6c2-2 5-4 7-6s2-4 2-6v-2c-2 1-4 2-6 2s-4-1-5-2c-2-1-3-2-4-4-1-1-1-3-1-5s0-3 1-5 3-3 5-4c1-1 3-2 5-2zM11 0c2 0 5 1 7 2s4 3 5 6c1 2 2 5 2 8s0 5-1 6c0 2-1 4-3 6-1 2-3 4-4 5-1 2-3 4-6 7l-4-6c3-2 5-4 7-6s3-4 3-6c0-1-1-2-1-2-2 1-4 2-6 2s-3-1-5-2c-1-1-3-2-4-4-1-1-1-3-1-5s0-3 2-5c1-2 2-3 4-4 1-1 3-2 5-2z"/></svg>