<svg aria-hidden="true" style="width:0;height:0;position:absolute;overflow:hidden" xmlns="http://www.w3.org/2000/svg"><defs><symbol id="icon-logo" viewBox="0 0 127 32"><path fill="#fff" style="fill:var(--color1,#fff)" d="M31.36 16.32C31.36 24.98 24.483 32 16 32S.64 24.98.64 16.32 7.517.64 16 .64s15.36 7.02 15.36 15.68z"/><path fill="#d41443" style="fill:var(--color2,#d41443)" d="M11.849.562C4.443 2.805 0 8.635 0 16.004c0 6.023 3.091 11.277 8.179 13.904 2.64 1.346 3.027.384.58-1.474-1.739-1.41-2.061-2.05-2.061-4.421 0-1.666-.386-3.011-.966-3.524-1.159-.961-1.288-3.46-.129-4.357.451-.384.902-1.666.966-2.819.322-4.229 4.894-8.201 9.467-8.201s9.145 3.973 9.466 8.201c.064 1.153.515 2.435.966 2.819 1.159.897 1.03 3.396-.129 4.357-.58.513-.966 1.858-.966 3.524 0 2.371-.322 3.011-2.061 4.421-2.705 2.114-1.932 2.883 1.095 1.025 4.25-2.627 7.406-8.33 7.406-13.391C31.813 5.944 21.252-2.257 11.85.562z"/><path fill="#d41443" style="fill:var(--color2,#d41443)" d="M12.686 7.994c-1.159.513-2.125 1.153-2.125 1.538 0 .705 3.477 1.986 5.474 1.986s5.474-1.281 5.474-1.986c0-.769-3.993-2.499-5.603-2.499-.644.064-2.125.449-3.22.961zM45.851 11.326c-.966.256-1.159 1.089-1.159 5.703v5.382h4.572l-.193-5.574c-.193-5.831-.451-6.279-3.22-5.51zM53.386 11.646c-2.125 1.153-2.898 2.563-2.898 5.318 0 3.78 2.061 5.574 5.86 5.318 2.576-.192 2.833-.384 3.027-1.986s.064-1.73-1.932-1.602c-2.061.192-2.125.064-2.125-2.05s.129-2.243 1.996-2.05c1.546.128 2.125-.128 2.383-1.089.129-.641 0-1.538-.386-1.922-.902-.897-4.25-.897-5.925.064zM61.049 11.71c-.193.513-.258 3.011-.129 5.638l.193 4.741h4.186c3.864 0 4.186-.128 4.379-1.474.193-1.217-.064-1.41-2.06-1.41-1.288 0-2.319-.32-2.319-.641 0-.384.902-.641 1.932-.641 1.481 0 1.932-.256 1.932-1.281s-.451-1.281-1.932-1.281c-1.03 0-1.932-.32-1.932-.641 0-.384.837-.641 1.868-.641 1.804 0 3.027-1.41 2.254-2.627-.58-.961-7.985-.705-8.372.256zM73.993 11.518c-2.125.833-2.962 2.307-3.027 4.998-.065 4.613 1.803 6.215 6.633 5.767 1.868-.128 2.189-.448 2.189-1.794 0-1.41-.257-1.602-2.061-1.41-1.546.128-2.125-.064-2.447-1.089-.58-1.986.644-3.588 2.705-3.588 1.224 0 1.868-.384 1.996-1.217.451-2.05-2.833-3.011-5.989-1.666zM81.914 11.262c-.323.256-.515 2.883-.515 5.831v5.382l2.06-.192c1.61-.128 2.19-.577 2.512-1.794l.386-1.602.515 1.73c.387 1.474.837 1.794 2.512 1.794 2.769 0 3.091-.448 1.932-2.691-.708-1.41-.837-2.114-.322-2.627.837-.833.902-3.652.129-4.87-.644-1.025-8.371-1.858-9.208-.961zm5.28 3.46c0 .705-.257 1.281-.644 1.281-.322 0-.644-.577-.644-1.281s.322-1.281.644-1.281c.387 0 .644.577.644 1.281zM93.441 11.326c-.258.192-.451 2.819-.451 5.767v5.318h4.186c4.057 0 4.186-.064 4.186-1.602 0-1.346-.322-1.602-1.932-1.602-1.03 0-1.932-.32-1.932-.641 0-.384.708-.641 1.61-.641 1.159 0 1.61-.32 1.61-1.281s-.451-1.281-1.61-1.281c-.902 0-1.61-.32-1.61-.641 0-.384.902-.641 1.932-.641 1.61 0 1.932-.256 1.932-1.602 0-1.538-.193-1.602-3.735-1.602-2.061 0-3.992.192-4.186.448zM106.45 11.262c-1.16.32-4.122 8.842-3.542 10.252.515 1.281 3.413 1.153 4.186-.192.579-1.089.644-1.089 1.803 0 1.482 1.281 4.701 1.474 4.701.256 0-.384-.644-2.947-1.482-5.574-1.288-4.229-1.674-4.806-3.027-4.934-.902 0-2.061.064-2.64.192zm1.803 5.831c-.193.641-.322.256-.322-.769 0-1.089.129-1.538.322-1.153.129.448.129 1.346 0 1.922zM115.723 11.326c-.58.192-.837 1.986-.837 5.703v5.382h1.868c1.61 0 1.932-.32 2.189-1.794.257-1.666.257-1.666.772-.32.258.833.902 1.474 1.352 1.474.515 0 1.224-.641 1.546-1.474.515-1.346.58-1.346.58.384.065 1.602.257 1.794 2.061 1.602l1.996-.192.065-5.318c.129-4.934.064-5.318-1.288-5.638-2.061-.513-3.799.705-4.379 3.076l-.451 2.114-.708-2.243c-.902-3.011-2.254-3.78-4.765-2.755zM9.016 11.967c-.193.256-.386 1.089-.386 1.922 0 1.474.064 1.474 7.406 1.474s7.406 0 7.406-1.474c0-2.178-.58-2.435-2.64-1.41-2.318 1.217-7.213 1.217-9.531 0-1.03-.513-1.996-.705-2.254-.513zM7.148 17.669c-1.03 1.089.708 1.538 5.731 1.538h5.409v2.243c0 1.217.322 2.243.644 2.243.386 0 .644-.961.644-2.178 0-2.114.129-2.243 2.576-2.435 1.417-.128 2.576-.513 2.576-.833 0-.705-16.872-1.281-17.581-.577z"/><path fill="#d41443" style="fill:var(--color2,#d41443)" d="M8.629 23.308c0 3.524 1.224 4.229 7.406 4.229s7.406-.705 7.406-4.229c0-1.538-.322-2.178-.966-2.178-.58 0-.966.577-.966 1.538 0 3.588-4.894 3.908-5.603.384-.322-1.858-.515-1.922-3.8-1.922H8.629v2.178zM12.622 30.548c.386 2.05 6.955 1.858 6.955-.128 0-.705-.837-.961-3.606-.961-3.027 0-3.542.192-3.349 1.089z"/></symbol><symbol id="icon-circle" viewBox="0 0 32 32"><path fill="#fff" style="fill:var(--color1,#fff)" d="M0 16c0 8.837 7.163 16 16 16s16-7.163 16-16S24.837 0 16 0 0 7.163 0 16z"/></symbol><symbol id="icon-button" viewBox="0 0 22 32"><path fill="none" stroke="#d41443" style="stroke:var(--color1,#d41443)" stroke-linejoin="round" stroke-linecap="round" stroke-width="6.4" d="M3.321 3.2 18.295 16 3.321 28.8"/></symbol><symbol id="right-arrow1" viewBox="0 0 32 32"><path d="m19.414 27.414 10-10a2 2 0 0 0 0-2.828l-10-10a2 2 0 1 0-2.828 2.828L23.172 14H4a2 2 0 1 0 0 4h19.172l-6.586 6.586c-.39.39-.586.902-.586 1.414s.195 1.024.586 1.414a2 2 0 0 0 2.828 0z"/></symbol><symbol id="apples" viewBox="0 0 32 32"><path d="M29.626 21.411c-1.292-.458-2.382-.344-3.242.018.145-.877.47-1.832 1.17-2.481a1.065 1.065 0 0 0-1.449-1.561c-1.229 1.14-1.706 2.748-1.874 4.081a4.036 4.036 0 0 0-1.058-.311l1.89-9.83a1.065 1.065 0 0 0-1.046-1.266h-.204c.094-.5.141-.997.137-1.47-.016-1.994-.903-3.495-2.374-4.017-1.41-.5-2.59-.35-3.507.066.145-.976.494-2.063 1.282-2.794A1.065 1.065 0 0 0 17.902.285c-1.32 1.225-1.815 2.965-1.982 4.386-.735-.348-1.644-.527-2.708-.33-1.094-1.571-2.613-2.296-4.089-1.942-1.451.349-2.358 1.115-2.901 1.962-.41-.899-.712-2.001-.452-3.036A1.065 1.065 0 0 0 3.705.806c-.439 1.746.095 3.476.729 4.758-1.016.137-2.117.65-3.049 1.866-.578.755-.773 1.698-.596 2.7a1.065 1.065 0 0 0-.674 1.197l3.809 19.81c.096.501.535.864 1.046.864h15.237c.511 0 .949-.362 1.046-.864l.037-.195c.287.198.596.363.927.487 1.266.471 2.447.278 3.044.118.316.085.795.179 1.364.179.506 0 1.084-.075 1.68-.297 2.36-.879 3.615-3.839 3.596-6.178-.015-1.904-.866-3.339-2.276-3.839zm-6.952-9.22c-.49 4.705-4.452 7.91-9.971 7.91s-9.481-3.204-9.971-7.91h19.942zm-6.642-4.676a1.047 1.047 0 0 0 1.86 0c.029-.048.29-.466.769-.777.629-.408 1.35-.46 2.203-.157.851.302.952 1.518.956 2.027.004.464-.064.962-.191 1.453h-7.126c.236-1.19.094-2.492-.289-3.669a2.12 2.12 0 0 1 1.047.346c.479.311.74.729.769.777zM3.078 8.724c.55-.719 1.182-1.068 1.932-1.069h.002c.57 0 1.016.208 1.066.232.341.19.749.172 1.079-.037.331-.211.51-.592.481-.983-.006-.077-.115-1.893 1.983-2.397.876-.211 1.625.754 1.906 1.178.807 1.22 1.221 3.108.777 4.413H2.955c-.141-.443-.179-.943.122-1.336zM5.852 29.87 3.741 18.892c.138.133.281.263.427.389 2.208 1.901 5.239 2.948 8.535 2.948s6.328-1.047 8.535-2.948l.152-.135-.431 2.243c-.02.007-.041.013-.061.021-1.41.5-2.261 1.935-2.276 3.839a7.862 7.862 0 0 0 .898 3.621l-.192.999H5.851zm21.71-.438c-.943.351-1.881.017-1.916.005a1.04 1.04 0 0 0-.768 0c-.009.004-.96.352-1.917-.005-1.338-.498-2.223-2.556-2.21-4.165.004-.466.095-1.578.858-1.849.349-.124.661-.175.939-.175 1.107 0 1.657.812 1.782 1.024a1.047 1.047 0 0 0 1.862 0c.156-.265.977-1.468 2.721-.849.763.271.854 1.383.858 1.849.013 1.609-.872 3.667-2.21 4.166z"/></symbol><symbol id="heart" viewBox="0 0 28 32"><path d="M6.376.451zM.517 6.61zm0 4.357zm4.057 7.362.15-.3h.15l-.3.3zm6.009 4.206zm1.502.601v-.3l.3.15v.15h-.3zm0 8.564v.3-.601h1.352V32h-1.803v-.3h.451zm1.353 0h.3v.3h-.3v-.3zm0-8.113h-.3v-.451l.451.15-.15.3zm.45.15zm.601 0zm.451-.15-.15-.3.451-.15v.451h-.3zm0 8.113v.3-.601h1.352V32h-1.653v-.3h.3zm1.352 0h.451v.3h-.451v-.3zm0-8.564h-.3v-.3h.3v.3zm1.352-.601zm6.16-4.206zm4.206-9.615zM22.752.601zM20.499.3zm-2.705.451zm-3.155 1.653zm-.45.3.3.3-.3.15-.15-.15.15-.3zm-.601-.45zM8.179.3zm.902 1.503zm1.652.451zm2.554 1.652zm1.953-.15zM26.207 6.46zm.301 1.803zm-1.653 1.652zm-4.356 1.052zm-1.803.451zm-1.052 5.709zm-1.803-6.46zm-1.953-1.052zm-2.704-1.502zM4.273 4.808zm-1.352-.301zm1.202-1.352zM5.175 6.46zm3.906 1.803zm1.502 1.202zm3.155 1.803zm1.052.45zm.3 5.859zm3.606.451zm1.953-5.709zm4.507-.901zm1.051-.301zm-1.201 3.306zm-2.855 3.455zm-7.061 4.056zm-.901.451.15.15-.15.15-.15-.15.15-.15zm-.902-.451v-.3h.15l-.15.3zm-7.211-4.357zM1.869 9.615zM2.17 6.16zM6.527.751C3.673 1.202 1.569 3.455.818 6.61l-.601-.15C.968 3.155 3.372.751 6.377 0l.15.751zM.818 6.61c0 .451-.15 1.352-.15 2.103 0 .901.15 1.653.15 2.254l-.601.15c-.15-.601-.15-1.502-.15-2.404 0-.901 0-1.653.15-2.254l.601.15zm0 4.357c.601 2.704 1.953 4.958 3.906 7.061l-.3.451a14.14 14.14 0 0 1-4.207-7.361l.601-.15zm4.056 7.061c1.803 1.803 3.305 3.005 5.859 4.207l-.15.601c-2.704-1.202-4.357-2.404-6.16-4.357l.451-.451zm5.859 4.207 1.352.601-.15.601-1.352-.601.15-.601zm1.653.901v4.207h-.751v-4.207h.751zm0 4.207V31.7h-.751v-4.357h.751zm.751 4.357v-4.056h.601V31.7h-.601zm0-4.057v-4.056h.601v4.056h-.601zm.451-4.357.3.15-.15.601-.3-.15.15-.601zm.3.151h.601l.15.601h-.901l.15-.601zm.601 0 .3-.15.15.601-.3.15-.15-.601zm.751.15v4.056h-.601v-4.056h.601zm0 4.056v4.056h-.601v-4.056h.601zm.752 4.057v-4.357h.751V31.7h-.751zm0-4.357v-4.207h.751v4.207h-.751zm.3-4.507 1.202-.601.3.601-1.352.601-.15-.601zm1.202-.601c2.554-1.202 4.357-2.404 6.009-4.207l.451.451c-1.803 1.953-3.606 3.155-6.16 4.357l-.3-.601zm6.009-4.207c2.854-2.704 4.207-5.859 4.207-9.315h.601c0 3.606-1.502 6.911-4.357 9.765l-.451-.451zm4.207-9.314c0-3.756-1.953-6.761-4.958-7.812l.15-.601c3.305 1.052 5.408 4.357 5.408 8.413h-.601zM22.752.901c-.751-.3-1.052-.3-2.254-.3V0c1.202 0 1.653 0 2.404.3l-.15.601zm-2.253-.3c-.751 0-1.052 0-1.502.15-.3 0-.601.15-1.052.3l-.15-.601c.451-.15.751-.3 1.202-.3.451-.15.751-.15 1.502-.15v.601zm-2.554.451c-1.202.3-2.404.901-3.005 1.502l-.451-.451C15.24 1.502 16.442.751 17.794.45l.15.601zM14.94 2.554l-.451.451-.451-.451.451-.451.451.451zm-.902.451-.601-.451.3-.601.601.451-.3.601zm-.6-.451C11.785 1.352 10.133.751 8.18.601V0c2.103.15 3.906.751 5.559 1.953l-.3.601zM8.179.601H7.127c-.301 0-.601 0-.601.15L6.376.15c.15-.15.451-.15.751-.15h1.052v.601zm1.052.901c.451.15 1.202.3 1.653.451l-.3.601c-.3-.15-1.052-.3-1.502-.451l.15-.601zm1.652.451c.3.15.901.451 1.352.751s1.052.751 1.202.901l-.3.451c-.3-.15-.751-.451-1.202-.751s-1.052-.601-1.352-.751l.3-.601zm2.555 1.653c.3.3.451.3.451.451h.6l.451-.451.451.451c-.3.15-.451.3-.601.451s-.451.3-.601.3c-.15 0-.451-.15-.601-.3-.15 0-.3-.15-.451-.451l.3-.451zm1.502 0c1.502-1.352 3.756-2.254 5.709-2.254v.601c-1.653 0-3.906.901-5.258 2.103l-.451-.451zm5.709-2.254c2.704 0 5.108 2.103 6.009 4.958l-.751.15c-.601-2.554-2.854-4.507-5.258-4.507v-.601zm5.859 4.958c.15.601.3 1.352.3 1.953h-.601c0-.451-.15-1.202-.3-1.803l.601-.15zm.3 1.953v.601c0 .3 0 .451-.15.601s-.451.3-.601.451c-.3 0-.601.15-1.052.3l-.15-.601c.3-.15.601-.3.901-.3.15-.15.3-.15.451-.3v-.751h.601zm-1.802 1.953c-1.352.601-2.554.751-4.357 1.052l-.15-.601c1.953-.3 3.005-.451 4.357-1.052l.15.601zm-4.357 1.052c-.601 0-1.052 0-1.202.15-.3 0-.451.15-.601.15l-.3-.451c.15-.15.451-.3.751-.3.3-.15.601-.15 1.202-.15l.15.601zm-1.803.3c-.15.15-.3.3-.3.451-.15.15-.15.3-.3.451-.15.451-.15 1.052-.15 2.254h-.601c0-1.052 0-1.803.15-2.404.15-.3.15-.451.3-.751.15-.15.3-.3.601-.451l.3.451zm-.751 3.155v1.803c0 .451-.15.601-.3.751l-.451-.3c0-.15.15-.15.15-.451v-1.803h.601zm-.301 2.554c-.3.451-1.052.451-1.352 0l.451-.451c.15.3.3.15.451.15l.451.3zm-1.352 0c-.15 0-.15-.15-.3-.3v-.451c-.15-.3-.15-1.052-.15-2.254h.751v2.554h.15l-.451.451zm-.45-3.005v-2.554c0-.15-.15-.3-.15-.451l-.3-.3.451-.451.451.451c0 .15.15.451.15.751 0 .451.15 1.352.15 2.554h-.751zm-.451-3.305s0-.15-.15-.15c0 0-.15-.15-.451-.15-.3-.3-.751-.451-1.202-.751l.3-.451c.451.15.901.451 1.202.601s.451.15.451.3h.15c.15 0 .15.15.15.15l-.451.451zm-1.803-1.052c-1.052-.451-2.103-1.052-2.704-1.502l.3-.601c.601.451 1.653 1.052 2.704 1.653l-.3.451zm-2.704-1.502C9.532 7.211 8.33 6.46 7.428 6.009c-1.052-.451-1.953-.751-3.155-.901v-.601c1.352.15 2.404.451 3.455.901 1.052.601 2.103 1.352 3.606 2.404l-.3.601zM4.273 5.108c-.451 0-.751-.15-.901-.15h-.3l-.15-.15h-.15l.3-.601c.15 0 .3.15.3.15.3 0 .601 0 1.052.15l-.15.601zm-1.502-.3c-.15-.15-.15-.15-.15-.3v-.15l.15-.15c0-.15.15-.3.3-.451.15-.3.451-.601.751-.901l.451.451c-.3.3-.601.601-.751.901-.15.15-.15.3-.3.3s0-.15-.15-.15l-.3.451zm1.051-1.954C5.324 1.502 7.127 1.201 9.23 1.502l-.15.601c-1.953-.3-3.455 0-4.808 1.202l-.451-.451zm1.353 3.155c1.352.451 2.704 1.052 4.056 2.103l-.451.451C7.578 7.662 6.226 6.91 5.024 6.76l.15-.751zm4.056 2.104c.451.3 1.202.901 1.502 1.052l-.3.451c-.3-.15-1.052-.601-1.653-1.052l.451-.451zm1.502 1.051c.751.601 2.103 1.352 3.155 1.803l-.3.601c-1.052-.451-2.404-1.202-3.155-1.953l.3-.451zm3.155 1.803c.15 0 .451.15.601.3.15 0 .3.15.3.15.15 0 .15.15.15.15l-.451.451v-.15h-.3c-.15-.15-.3-.3-.601-.3l.3-.601zm1.052.601c.15 0 .15.15.15.15v.3c.15 0 .15.3.15.451v1.953h-.601v-1.953c-.15-.15-.15-.3-.15-.451 0-.15 0 0 0 0l.451-.451zm.3 2.855v2.254c0 .451.15.601.15.751l-.601.15c0-.15-.15-.451-.15-.901v-2.254h.601zm.151 3.004c.15.3.451.601.751.751s.601.3 1.052.3v.601c-.601 0-1.052-.15-1.352-.3-.451-.3-.751-.601-1.052-1.202l.601-.15zm1.802 1.052c.3 0 .451-.15.601-.15.3-.15.451-.3.601-.451l.451.451c-.15.3-.451.451-.751.601s-.601.15-.901.15v-.601zm1.202-.601.3-.3c.15-.15.15-.3.15-.451.15-.451.15-1.052.15-2.103h.601c0 1.052 0 1.803-.15 2.254 0 .15-.15.451-.15.601l-.451.451-.451-.451zm.601-2.855v-1.502c0-.451 0-.751.15-.901.15-.3.3-.451.601-.451.3-.15.601-.15.901-.15v.601c-.3 0-.601.15-.751.15s-.15 0-.15.15c-.15 0-.15.3-.15.601v1.502h-.601zm1.653-3.004c1.352-.15 3.155-.451 4.357-.901l.15.601c-1.202.451-3.005.751-4.507.901v-.601zm4.357-.902c.3-.15.601-.3.751-.3h.3l.15-.15h.15v.15h.15l-.451.451h.15v.15h-.15c-.3 0-.601.15-.901.3l-.15-.601zm1.502-.3v.15c.15 0 .15.15.15.15s0 .15-.15.15v.3c-.15.3-.15.601-.3.901-.3.751-.751 1.653-.901 2.103l-.601-.3c.3-.451.601-1.202.901-1.953.15-.3.15-.601.3-.901v-.3l.15.15.451-.451zm-1.202 3.756c-.901 1.502-1.653 2.254-2.854 3.455l-.451-.451c1.202-1.202 1.803-1.953 2.704-3.305l.601.3zm-2.854 3.455c-1.953 1.803-4.507 3.305-7.211 4.207l-.15-.601c2.554-.901 5.108-2.254 6.911-4.056l.451.451zm-7.212 4.207-.901.3-.3-.451 1.052-.451.15.601zm-1.202.3-.901-.3.3-.601.901.451-.3.451zm-.901-.3c-2.854-.901-5.258-2.404-7.362-4.357l.451-.451c1.953 1.803 4.357 3.305 7.061 4.207l-.15.601zm-7.361-4.357C3.222 15.324 1.87 12.77 1.569 9.615h.601c.3 2.854 1.653 5.408 4.056 7.812l-.451.451zM1.569 9.615c-.15-.601 0-1.352 0-1.953 0-.451 0-.751.15-1.052 0-.3.15-.451.15-.601l.601.3s-.15.15-.15.451-.15.601-.15.901v1.953h-.601zm.3-3.606c.15-.15.15-.15.3-.15 0-.15 0-.15.15-.15H3.37c.601.15 1.202.3 1.803.3l-.15.751a6.468 6.468 0 0 0-1.803-.3c-.3-.15-.451-.15-.751-.15h-.15.15l-.601-.3z"/><path d="M6.376.451c-2.854.601-5.108 2.854-5.859 6.16-.15 1.052-.15 3.155 0 4.357.601 2.854 1.953 5.258 4.056 7.362 1.803 1.803 3.455 3.005 6.009 4.207l1.502.601v8.563h1.352v-8.113l.451.15h.601l.451-.15v8.113h1.352v-8.563l1.352-.601c2.554-1.202 4.357-2.404 6.16-4.207 2.704-2.854 4.207-6.16 4.207-9.615 0-3.906-2.103-7.061-5.258-8.113-.601-.3-1.052-.3-2.254-.3-1.352 0-1.653.15-2.704.451-1.202.3-2.404.901-3.155 1.653l-.451.3-.601-.451C11.934 1.053 10.132.452 8.179.302c-.751 0-1.502 0-1.803.15zm2.705 1.352c.601.15 1.202.3 1.653.451.751.3 2.103 1.202 2.554 1.653.751.751 1.052.751 1.953-.15 1.352-1.202 3.606-2.103 5.408-2.103 2.554 0 4.958 1.953 5.559 4.808.15.451.3 1.352.3 1.803.15 1.052 0 1.052-1.653 1.653-1.202.601-2.404.751-4.357 1.052-1.202.15-1.352.15-1.803.451-.751.601-.901.901-.901 3.305 0 1.803 0 2.254-.15 2.404-.3.3-.751.3-1.052 0-.15-.3-.3-.451-.3-2.854 0-2.554 0-3.005-.451-3.606-.15 0-1.052-.451-1.953-1.052-1.052-.451-2.103-1.052-2.704-1.502-3.005-2.254-4.357-3.005-6.911-3.305-.751-.15-1.352-.3-1.352-.3s.601-.901 1.202-1.352c1.352-1.352 3.005-1.653 4.958-1.352zM5.175 6.46c1.202.3 2.554.901 3.906 1.803.451.451 1.202.901 1.502 1.202.751.601 2.103 1.352 3.155 1.803.451.15.901.451 1.052.451.15.15.15.901.15 2.704 0 2.254 0 2.704.15 3.155.451.751 1.052 1.202 2.103 1.202.601 0 1.052-.15 1.502-.751.451-.451.601-.751.601-3.005 0-2.554 0-2.554 1.352-2.704 1.502-.15 3.305-.451 4.507-.901.601-.3 1.052-.451 1.052-.3.15 0-.751 2.404-1.202 3.305-.901 1.352-1.502 2.254-2.854 3.455-1.803 1.653-4.357 3.155-7.061 4.056l-.901.451-.901-.451c-2.854-.901-5.258-2.404-7.211-4.357-2.554-2.404-3.906-4.958-4.207-7.962-.15-1.052 0-3.005.3-3.455.15-.15 1.803 0 3.005.3z"/></symbol><symbol id="boobs" viewBox="0 0 32 32"><path d="M7.773.144c-.35.187-.553.563-.553 1.006.006.813.209 1.556.614 2.2l.178.294-.338.381c-.381.425-.473.581-.645 1.087-.141.412-.154 1.162-.031 1.581.43 1.438 1.854 2.269 3.248 1.9.473-.125.761-.281 1.203-.656l.374-.313.35.175c.196.1.528.244.743.325l.381.138v.7c0 1.106.227 1.762.81 2.356s1.498.9 2.29.762c.565-.1 1.117-.381 1.492-.762.583-.594.81-1.25.81-2.356v-.7l.387-.138c.209-.081.54-.225.737-.325l.35-.175.375.313c.442.375.731.531 1.203.656 1.394.369 2.818-.463 3.248-1.9.123-.419.111-1.169-.031-1.581-.172-.506-.264-.662-.645-1.087l-.338-.381.178-.294c.405-.644.608-1.387.614-2.2 0-.444-.203-.819-.553-1.006L23.96 0H8.034L7.77.144zM22.508 2.1c0 .019-.178.313-.399.663-.651 1.031-.626 1.256.239 2.169.313.331.602.662.645.737.233.463-.233 1.037-.749.919-.123-.025-.393-.244-.786-.631-.786-.775-1.056-.862-1.658-.519-.694.4-1.578.806-2.008.925-.608.175-.817.306-.976.638-.129.256-.141.362-.141 1.362 0 1.231-.049 1.431-.399 1.6-.252.125-.301.125-.553 0-.35-.169-.399-.369-.399-1.6 0-1-.012-1.106-.135-1.362-.166-.325-.375-.462-.982-.638-.528-.15-1.308-.494-1.738-.775-.405-.263-.761-.362-1.044-.313-.184.037-.368.181-.86.662-.405.394-.694.625-.817.65-.51.119-.976-.463-.743-.919.043-.075.332-.406.645-.737.866-.912.89-1.138.239-2.169-.221-.35-.399-.644-.399-.663 0-.025 2.929-.038 6.508-.038s6.508.013 6.508.038zM5.925 13.206c-.313.212-.485.512-.485.844 0 .225 3.119 16.925 3.229 17.275.055.194.282.425.522.55C9.418 32 9.578 32 16 32s6.582 0 6.809-.125c.239-.125.467-.356.522-.55.11-.35 3.229-17.05 3.229-17.275 0-.331-.172-.631-.485-.844l-.209-.144H6.134l-.209.144zm18.21 2.275c-.061.5-.418 1.587-.682 2.081-1.283 2.375-3.714 3.819-6.729 3.988-2.278.131-4.206-.331-5.82-1.394a7 7 0 0 1-2.265-2.438c-.307-.544-.712-1.712-.774-2.237l-.043-.356h16.356l-.043.356zM9.83 21.919c2.634 1.775 6.569 2.244 9.885 1.169a10.688 10.688 0 0 0 3.18-1.688c.276-.219.295-.219.264-.081-.018.081-.381 1.994-.804 4.244s-.78 4.156-.798 4.231l-.031.144H10.475l-.031-.144c-.018-.075-.374-1.981-.798-4.231s-.786-4.163-.804-4.244c-.031-.137-.012-.137.264.081.16.125.491.356.724.519z"/></symbol><symbol id="facebook" viewBox="0 0 33 32"><path d="M16.47 32c8.837 0 16-7.163 16-16s-7.163-16-16-16c-8.836 0-16 7.163-16 16s7.164 16 16 16z"/><path fill="#fff" style="fill:var(--color2,#fff)" d="M20.916 15.981h-2.61V25.6h-3.955v-9.62h-1.88V12.6h1.88v-2.187c0-1.565.74-4.014 3.99-4.014l2.93.012v3.281h-2.126c-.348 0-.839.176-.839.922v1.99h2.956l-.346 3.376z"/></symbol><symbol id="github" viewBox="0 0 32 32"><path d="M32 16c0 8.837-7.163 16-16 16S0 24.837 0 16 7.163 0 16 0s16 7.163 16 16z"/><path fill="#fff" style="fill:var(--color2,#fff)" d="M16 6.588c-5.17 0-9.412 4.242-9.412 9.412 0 4.411 3.096 8.418 7.206 9.412v-3.114a2.307 2.307 0 0 1-1.197-.03c-.556-.165-1.008-.535-1.343-1.1-.214-.361-.593-.752-.988-.723l-.097-1.1c.855-.072 1.594.522 2.033 1.26.195.327.42.52.708.605.278.082.577.042.926-.08.087-.698.407-.96.648-1.327-2.451-.366-3.428-1.667-3.816-2.693-.514-1.363-.238-3.066.67-4.142.018-.021.05-.076.038-.114-.417-1.259.09-2.3.11-2.41.48.142.558-.143 2.088.786l.264.159c.11.066.076.028.187.02a7.77 7.77 0 0 1 1.969-.279H16a7.986 7.986 0 0 1 2.058.299l-.056-.014.086.008c-.008 0 .023-.005.075-.036 1.91-1.157 1.842-.779 2.354-.945.019.11.52 1.168.108 2.41-.056.172 1.656 1.74.707 4.256-.388 1.027-1.365 2.328-3.816 2.693v.001c.314.479.692.734.69 1.722v3.887c4.11-.994 7.206-5 7.206-9.412 0-5.17-4.242-9.412-9.412-9.412z"/></symbol><symbol id="telegram" viewBox="0 0 33 32"><path d="M32.235 16c0 8.837-7.163 16-16 16s-16-7.163-16-16 7.163-16 16-16 16 7.163 16 16z"/><path fill="#fff" style="fill:var(--color2,#fff)" d="m13.102 18.375-.317 4.17c.454 0 .651-.183.887-.401l2.13-1.9 4.415 3.017c.81.42 1.38.199 1.599-.695l2.897-12.673h.001c.257-1.118-.433-1.554-1.222-1.28L6.46 14.699c-1.162.42-1.145 1.026-.198 1.3l4.355 1.264 10.114-5.907c.476-.294.91-.131.553.163l-8.181 6.856z"/></symbol><symbol id="burger" viewBox="0 0 32 32"><path stroke-width="1.6" d="M0 6.4h32M0 16h32M0 25.6h32"/></symbol><symbol id="close" viewBox="0 0 32 32"><path stroke-width="2" d="m2.519 2 26.963 28M2 29.481 30 2.518"/></symbol><symbol id="home" viewBox="0 0 32 32"><path d="M31.599 15.443c.58-.539.524-1.366-.125-1.846L17.173 3.02c-.649-.48-1.69-.47-2.325.023L.498 14.161c-.635.492-.667 1.318-.069 1.843l.36.317c.597.525 1.562.588 2.154.139l1.072-.812v11.884c0 .729.699 1.319 1.561 1.319h5.594c.862 0 1.561-.59 1.561-1.319v-8.314h7.135v8.314c-.012.729.604 1.319 1.466 1.319h5.928c.862 0 1.561-.59 1.561-1.319V15.815l.662.491c.366.272 1.131.054 1.711-.486l.407-.378z"/></symbol><symbol id="more" viewBox="0 0 32 32"><path stroke-linejoin="round" stroke-linecap="round" stroke-width="6.4" d="M8.372 3.2 22.541 16 8.372 28.8"/></symbol><symbol id="right-arrow" viewBox="0 0 32 32"><path d="M0 14.849v3.972h20.085l-9.252 6.003 2.257 3.475 18.911-12.322L13.09 3.746l-2.257 3.43 10.381 6.725H.001z"/></symbol><symbol id="quotes" viewBox="0 0 32 32"><path d="M23.463 5.508c1.413 0 2.748.341 4.005 1.024s2.277 1.663 3.062 2.943c.754 1.28 1.131 2.786 1.131 4.521s-.471 3.426-1.413 5.075c-.314.597-.879 1.365-1.696 2.303a43.076 43.076 0 0 1-2.356 2.431l-2.968 2.687-2.12-3.156a15.742 15.742 0 0 0 3.91-3.071c1.131-1.194 1.696-2.289 1.696-3.284 0-.512-.126-.924-.377-1.237-1.099.711-2.324 1.066-3.675 1.066-.974 0-1.9-.27-2.78-.81a5.94 5.94 0 0 1-2.167-2.047c-.565-.825-.848-1.678-.848-2.559 0-.995.33-1.948.989-2.858.628-.91 1.46-1.649 2.497-2.218 1.005-.54 2.042-.81 3.11-.81zm-16.914 0c1.413 0 2.748.341 4.005 1.024s2.277 1.663 3.062 2.943c.754 1.28 1.131 2.786 1.131 4.521 0 1.223-.173 2.317-.518 3.284-.345.995-.942 2.033-1.79 3.113-.817 1.024-1.586 1.877-2.309 2.559-.722.711-1.979 1.891-3.769 3.54l-2.12-3.156a15.742 15.742 0 0 0 3.91-3.071c1.131-1.194 1.696-2.289 1.696-3.284 0-.512-.126-.924-.377-1.237-1.099.711-2.324 1.066-3.675 1.066-.974 0-1.9-.27-2.78-.81a5.94 5.94 0 0 1-2.167-2.047C.283 13.128 0 12.275 0 11.394c0-.995.314-1.948.942-2.858s1.461-1.649 2.497-2.218c1.005-.54 2.042-.81 3.11-.81z"/></symbol><symbol id="quotes-2" viewBox="0 0 43 32"><path d="M32 0c1.6 0 4 .8 5.6 1.6s3.2 2.4 4 4.8c.8 1.6 1.6 4 1.6 6.4s-.8 5.6-1.6 8c-.8.8-1.6 1.6-2.4 3.2-1.6 1.6-2.4 3.2-3.2 4l-4 4-3.2-4.8c1.6-1.6 4-3.2 5.6-4.8s1.6-3.2 1.6-4.8V16c-1.6.8-3.2 1.6-4.8 1.6s-3.2-.8-4-1.6c-1.6-.8-2.4-1.6-3.2-3.2-.8-.8-.8-2.4-.8-4s0-2.4.8-4 2.4-2.4 4-3.2C28.8.8 30.4 0 32 0zM8.8 0c1.6 0 4 .8 5.6 1.6s3.2 2.4 4 4.8c.8 1.6 1.6 4 1.6 6.4s0 4-.8 4.8c0 1.6-.8 3.2-2.4 4.8-.8 1.6-2.4 3.2-3.2 4-.8 1.6-2.4 3.2-4.8 5.6l-3.2-4.8c2.4-1.6 4-3.2 5.6-4.8s2.4-3.2 2.4-4.8c0-.8-.8-1.6-.8-1.6-1.6.8-3.2 1.6-4.8 1.6s-2.4-.8-4-1.6c-.8-.8-2.4-1.6-3.2-3.2-.8-.8-.8-2.4-.8-4s0-2.4 1.6-4c.8-1.6 1.6-2.4 3.2-3.2C5.6.8 7.2 0 8.8 0z"/></symbol><symbol id="elipse" viewBox="0 0 32 32"><path d="M19.692 16a3.692 3.692 0 1 1-7.384 0 3.692 3.692 0 0 1 7.384 0zM7.385 16a3.692 3.692 0 1 1-7.384 0 3.692 3.692 0 0 1 7.384 0zM32 16a3.692 3.692 0 1 1-7.384 0A3.692 3.692 0 0 1 32 16z"/></symbol><symbol id="three-dots" viewBox="0 0 32 32"><path d="M18 16a2 2 0 1 1-3.999.001A2 2 0 0 1 18 16zM4 16a2 2 0 1 1-3.999.001A2 2 0 0 1 4 16zm28 0a2 2 0 1 1-3.999.001A2 2 0 0 1 32 16z"/></symbol><symbol id="three-dots-2" viewBox="0 0 256 32"><path d="M144 16c0 8.837-7.163 16-16 16s-16-7.163-16-16 7.163-16 16-16 16 7.163 16 16zM32 16c0 8.837-7.163 16-16 16S0 24.837 0 16 7.163 0 16 0s16 7.163 16 16zm224 0c0 8.837-7.163 16-16 16s-16-7.163-16-16 7.163-16 16-16 16 7.163 16 16z"/></symbol><symbol id="check-box" viewBox="0 0 34 32"><path d="M4.267 0h25.6C32 0 34.134 2.133 34.134 4.267v23.467c0 2.133-2.133 4.267-4.267 4.267h-25.6C2.134 32.001 0 29.868 0 27.734V4.267C0 2.134 2.133 0 4.267 0z"/><path d="m6.4 17.067 6.4 4.267c4.267-4.267 8.533-8.533 14.933-12.8l2.133 2.133c-6.4 4.267-10.667 10.667-17.067 14.933l-8.533-6.4 2.133-2.133z"/><path d="M29.867 4.267v23.467h-25.6V4.267h25.6zm0-4.267h-25.6C2.134 0 0 2.133 0 4.267v23.467c0 2.133 2.133 4.267 4.267 4.267h25.6c2.133 0 4.267-2.133 4.267-4.267V4.267C34.134 2.134 32.001 0 29.867 0z"/></symbol><symbol id="icon-icon-Vector-1" viewBox="0 0 32 32"><path d="m21 12.7-6.115-6.115a2 2 0 0 0-2.828 2.83l6.115 6.113a.666.666 0 0 1 0 .944l-6.115 6.113a2 2 0 0 0 2.828 2.83L21 19.3c.843-.845 1.364-2.012 1.364-3.3s-.521-2.455-1.364-3.3z"/></symbol></defs></svg>