<svg aria-hidden="true" style="position:absolute;width:0;height:0;overflow:hidden" xmlns="http://www.w3.org/2000/svg">
<defs>
<symbol id="icon-close-mobile" viewBox="0 0 32 32"><path d="M31.439 3.166l-3.166-3.166-12.553 12.553-12.553-12.553-3.166 3.166 12.553 12.553-12.553 12.553 3.166 3.166 12.553-12.553 12.553 12.553 3.166-3.166-12.553-12.553 12.553-12.553z"></path></symbol>
<symbol id="icon-circle-up" viewBox="0 0 32 32">
<path d="M0 16c0 8.837 7.163 16 16 16s16-7.163 16-16-7.163-16-16-16-16 7.163-16 16zM29 16c0 7.18-5.82 13-13 13s-13-5.82-13-13 5.82-13 13-13 13 5.82 13 13z"></path>
<path d="M22.086 20.914l2.829-2.829-8.914-8.914-8.914 8.914 2.828 2.828 6.086-6.086z"></path>
</symbol>
<symbol id="icon-emblem_uaf" viewBox="0 0 32 32">
<path fill="#ffed00" style="fill: var(--color1, #ffed00)" d="M10.388 19.070h2.541v2.541l-2.541 10.376h11.223l-2.541-10.376v-2.541h2.541l10.376 2.541v-11.223l-10.376 2.541h-2.541v-2.541l2.541-10.376h-11.223l2.541 10.376v2.541h-2.541l-10.376-2.541v11.223z"></path>
<path fill="#e5097f" style="fill: var(--color2, #e5097f)" d="M21.442 13.413h-2.855v-2.855l2.461-10.062h-10.094l2.46 10.062-0 2.855h-2.855l-10.062-2.46v10.094l10.062-2.46h2.855v2.855l-2.46 10.062h10.094l-2.461-10.062v-2.855h2.855l10.062 2.46v-10.094z"></path>
<path fill="#ffed00" style="fill: var(--color1, #ffed00)" d="M16 9.499c-3.59 0-6.501 2.911-6.501 6.501s2.911 6.501 6.501 6.501c3.59 0 6.501-2.911 6.501-6.501s-2.911-6.501-6.501-6.501z"></path>
<path fill="#000" style="fill: var(--color3, #000)" d="M16 9.983c-3.323 0-6.017 2.695-6.017 6.017s2.694 6.017 6.017 6.017c3.323 0 6.017-2.695 6.017-6.017s-2.695-6.017-6.017-6.017z"></path>
<path fill="#ffed00" style="fill: var(--color1, #ffed00)" d="M14.639 19.062h-1.703v-7.405c0.914 0.502 1.526 1.416 1.65 2.436l0.242 2.179c-0.038-0.011-0.068-0.011-0.106-0.011-0.287 0-0.517 0.23-0.517 0.502 0 0.287 0.23 0.517 0.517 0.517 0.068 0 0.136-0.015 0.189-0.042 0.517-0.842 0.789-1.797 0.789-2.775l-0.079-2.545c0-0.381 0.136-0.736 0.378-1.023 0.245 0.287 0.381 0.642 0.381 1.023l-0.079 2.545c0 0 0 0 0 0 0 0.978 0.272 1.945 0.774 2.775 0.068 0.026 0.136 0.042 0.204 0.042 0.272 0 0.506-0.23 0.506-0.517 0-0.272-0.234-0.502-0.506-0.502-0.038 0-0.079 0-0.121 0.011l0.257-2.179c0.125-1.035 0.736-1.933 1.65-2.436v7.405h-1.718c-0.121 0.668-0.476 1.265-1.020 1.703-0.041 0.026-0.083 0.053-0.121 0.094-0.083 0.068-0.151 0.151-0.208 0.245-0.053-0.094-0.121-0.177-0.204-0.245-0.038-0.026-0.094-0.068-0.136-0.094-0.529-0.423-0.899-1.035-1.020-1.703 0 0 0 0 0 0s0 0 0 0 0 0 0 0zM13.725 16.517c0.083-0.298 0.276-0.544 0.548-0.668l-0.193-1.688c-0.068-0.529-0.283-1.035-0.638-1.442v3.799h0.283zM13.442 17.020v1.541h1.155c0 0 0 0 0 0 0-0.272 0.026-0.532 0.109-0.778-0.464 0-0.857-0.313-0.982-0.763h-0.283zM15.741 18.56c0-0.329-0.23-0.6-0.544-0.642-0.068 0.204-0.094 0.423-0.094 0.642 0 0 0 0 0 0h0.638zM15.182 19.062c0.068 0.408 0.272 0.778 0.559 1.076v-1.076h-0.559zM16.802 19.062h-0.544v1.076c0.287-0.298 0.476-0.668 0.544-1.076zM16.886 18.56c0-0.219-0.026-0.438-0.083-0.642-0.313 0.042-0.544 0.313-0.544 0.642h0.627zM15.402 17.416l0.57 0.408 0.615-0.393c-0.276-0.48-0.449-0.914-0.589-1.416-0.136 0.502-0.31 0.91-0.597 1.401zM17.403 18.56h1.144v-1.541h-0.287c-0.11 0.449-0.502 0.763-0.967 0.763 0.068 0.261 0.11 0.517 0.11 0.778zM18.547 17.020v0 0zM18.26 16.514h0.287v-3.799c-0.34 0.408-0.559 0.899-0.627 1.435l-0.204 1.699c0.272 0.136 0.476 0.37 0.544 0.665z"></path>
</symbol>
</defs>
</svg>