<svg xmlns="http://www.w3.org/2000/svg" width="54px" height="40px" viewBox="0 0 54 40" >
  <path fill="#E1E1E1" style="fill: var(--color1, #E1E1E1)" d="M40 0c2,0 5,1 7,2 2,1 4,3 5,6 1,2 2,5 2,8 0,3 -1,7 -2,10 -1,1 -2,2 -3,4 -2,2 -3,4 -4,5l-5 5 -4 -6c2,-2 5,-4 7,-6 2,-2 2,-4 2,-6 0,-1 0,-2 0,-2 -2,1 -4,2 -6,2 -2,0 -4,-1 -5,-2 -2,-1 -3,-2 -4,-4 -1,-1 -1,-3 -1,-5 0,-2 0,-3 1,-5 1,-2 3,-3 5,-4 1,-1 3,-2 5,-2zm-29 0c2,0 5,1 7,2 2,1 4,3 5,6 1,2 2,5 2,8 0,3 0,5 -1,6 0,2 -1,4 -3,6 -1,2 -3,4 -4,5 -1,2 -3,4 -6,7l-4 -6c3,-2 5,-4 7,-6 2,-2 3,-4 3,-6 0,-1 -1,-2 -1,-2 -2,1 -4,2 -6,2 -2,0 -3,-1 -5,-2 -1,-1 -3,-2 -4,-4 -1,-1 -1,-3 -1,-5 0,-2 0,-3 2,-5 1,-2 2,-3 4,-4 1,-1 3,-2 5,-2z"/>
 </svg>
